<?xml version="1.0" encoding="utf-8"?>
<!-- Generator: Adobe Illustrator 15.0.0, SVG Export Plug-In . SVG Version: 6.00 Build 0)  -->
<!DOCTYPE svg PUBLIC "-//W3C//DTD SVG 1.1//EN" "http://www.w3.org/Graphics/SVG/1.1/DTD/svg11.dtd">
<svg version="1.1" id="Calque_1" xmlns="http://www.w3.org/2000/svg" xmlns:xlink="http://www.w3.org/1999/xlink" x="0px" y="0px"
	 width="734.21px" height="211.842px" viewBox="0 0 734.21 211.842" enable-background="new 0 0 734.21 211.842"
	 xml:space="preserve">
<polyline points="37.699,54.344 712.852,101.434 43.653,193.208 "/>
<polyline points="25.211,25.021 709.29,103.715 24.919,166.437 "/>
<polyline fill="#FEEC39" points="30.704,31.93 651.754,102.632 30.437,158.708 "/>
<path fill="#FEFFFF" d="M253.613,135.338l-28.324-0.06l0.153-72.109l24.215,0.052c9.584,0.02,17.15,1.765,22.692,5.236
	c3.383,2.098,6.295,4.878,8.739,8.341c4.384,6.137,6.568,13.566,6.549,22.286c-0.023,10.956-3.142,19.741-9.353,26.359
	C272.07,132.063,263.847,135.36,253.613,135.338z M243.785,79.533l-0.083,39.461l7.891,0.016
	c11.75,0.025,17.638-6.449,17.664-19.422c0.014-6.38-1.489-11.313-4.509-14.796c-3.021-3.482-7.342-5.229-12.961-5.241
	L243.785,79.533z"/>
<path fill="#FEFFFF" d="M315.215,132.014l-16.617-0.033l0.136-65.203l16.618,0.036L315.215,132.014z"/>
<path fill="#FFFFFF" d="M360.694,133.387c-9.647-0.021-17.753-3.28-24.322-9.779c-6.568-6.497-9.841-14.504-9.822-24.021
	c0.02-9.643,3.312-17.717,9.875-24.221c6.563-6.502,14.7-9.744,24.412-9.724c9.71,0.02,17.896,3.313,24.561,9.875
	c6.669,6.564,9.992,14.604,9.973,24.117c-0.02,9.517-3.379,17.525-10.071,24.027C378.605,130.167,370.403,133.406,360.694,133.387z
	 M360.999,80.403c-5.083-0.01-9.323,1.797-12.72,5.42c-3.396,3.625-5.099,8.127-5.11,13.507c-0.011,5.51,1.689,10.104,5.103,13.774
	c3.417,3.669,7.696,5.508,12.844,5.519c4.951,0.011,9.127-1.811,12.525-5.465c3.393-3.657,5.098-8.142,5.109-13.46
	c0.01-5.447-1.688-10.021-5.102-13.724C370.233,82.271,366.019,80.413,360.999,80.403z"/>
<path fill="#FFFFFF" d="M428.836,126.925c-7.766-0.018-14.291-2.639-19.579-7.871c-5.288-5.232-7.92-11.676-7.906-19.337
	c0.016-7.762,2.667-14.263,7.95-19.5c5.283-5.235,11.833-7.845,19.651-7.828c7.816,0.017,14.407,2.667,19.774,7.951
	c5.368,5.283,8.042,11.755,8.028,19.415c-0.018,7.662-2.72,14.109-8.107,19.343C443.257,124.332,436.655,126.941,428.836,126.925z
	 M429.086,84.272c-4.092-0.008-7.506,1.447-10.242,4.364c-2.734,2.919-4.104,6.543-4.115,10.875
	c-0.007,4.436,1.362,8.133,4.108,11.088c2.748,2.954,6.194,4.436,10.341,4.444c3.986,0.009,7.348-1.46,10.083-4.4
	c2.732-2.944,4.103-6.555,4.112-10.836c0.009-4.387-1.358-8.068-4.106-11.048C436.517,85.776,433.124,84.281,429.086,84.272z"/>
<path fill="#FFFFFF" d="M484.856,121.235c-6.113-0.014-11.248-2.079-15.409-6.194c-4.163-4.119-6.235-9.189-6.223-15.219
	c0.013-6.109,2.099-11.225,6.258-15.345c4.155-4.12,9.31-6.174,15.465-6.16c6.15,0.012,11.336,2.098,15.559,6.257
	c4.224,4.157,6.331,9.25,6.317,15.278c-0.01,6.028-2.139,11.104-6.38,15.221C496.202,119.195,491.008,121.245,484.856,121.235z
	 M485.05,87.669c-3.22-0.007-5.907,1.136-8.058,3.433c-2.153,2.297-3.232,5.148-3.238,8.556c-0.007,3.493,1.069,6.402,3.231,8.727
	c2.165,2.325,4.874,3.492,8.139,3.499c3.136,0.005,5.782-1.148,7.933-3.465c2.151-2.315,3.229-5.158,3.24-8.526
	c0.007-3.451-1.071-6.348-3.234-8.694C490.901,88.851,488.229,87.675,485.05,87.669z"/>
<path fill="#FFFFFF" d="M532.014,119.604c-5.099-0.011-9.381-1.769-12.852-5.271c-3.472-3.502-5.202-7.818-5.191-12.948
	c0.013-5.199,1.753-9.554,5.22-13.06c3.467-3.507,7.769-5.253,12.899-5.243c5.129,0.01,9.458,1.785,12.98,5.323
	c3.522,3.537,5.28,7.873,5.27,13.003c-0.014,5.13-1.786,9.447-5.323,12.953C541.479,117.867,537.144,119.614,532.014,119.604z
	 M532.178,91.04c-2.687-0.006-4.93,0.969-6.723,2.922c-1.795,1.955-2.695,4.382-2.703,7.282c-0.007,2.972,0.893,5.447,2.696,7.425
	c1.808,1.979,4.065,2.972,6.789,2.976c2.618,0.007,4.819-0.976,6.616-2.949c1.796-1.968,2.697-4.386,2.703-7.252
	c0.007-2.938-0.892-5.403-2.695-7.401C537.057,92.046,534.828,91.044,532.178,91.04z"/>
<path fill="#FFFFFF" d="M569.648,113.729c-3.506-0.007-6.449-1.193-8.836-3.553c-2.386-2.361-3.576-5.269-3.567-8.724
	c0.005-3.506,1.203-6.44,3.588-8.802c2.382-2.362,5.338-3.541,8.866-3.534c3.529,0.008,6.503,1.204,8.925,3.589
	c2.421,2.384,3.629,5.304,3.62,8.76c-0.007,3.458-1.226,6.367-3.657,8.731C576.156,112.557,573.174,113.737,569.648,113.729z
	 M569.759,94.48c-1.845-0.004-3.388,0.651-4.621,1.968c-1.235,1.318-1.854,2.953-1.856,4.908c-0.004,2.001,0.613,3.671,1.854,5.003
	c1.239,1.335,2.793,2.003,4.664,2.006c1.801,0.005,3.317-0.657,4.553-1.987c1.232-1.327,1.853-2.958,1.856-4.889
	c0.003-1.98-0.613-3.64-1.854-4.989C573.115,95.159,571.583,94.484,569.759,94.48z"/>
<path fill="#FEFFFF" d="M73.604,146.781l-25.453-0.055l0.219-104.149l32.947,0.071c8.849,0.019,15.538,0.553,20.062,1.604
	c4.526,1.051,8.504,3.036,11.931,5.957c8.521,7.098,12.771,16.632,12.745,28.603c-0.019,8.642-2.375,15.897-7.071,21.766
	c-4.697,5.874-11.006,9.478-18.918,10.813l28.189,35.504l-30.45-0.063l-24.13-33.778L73.604,146.781z M73.774,66.21l-0.062,28.731
	l9.369,0.019c11.557,0.024,17.344-4.828,17.365-14.561c0.02-9.422-5.646-14.144-16.991-14.168L73.774,66.21z"/>
<path d="M64.497,146.766l-25.453-0.053l0.218-104.147l32.947,0.069c8.847,0.018,15.535,0.554,20.062,1.603
	c4.528,1.052,8.504,3.037,11.933,5.958c8.521,7.098,12.771,16.632,12.745,28.602c-0.018,8.641-2.375,15.897-7.071,21.769
	c-4.7,5.87-11.006,9.476-18.917,10.813l28.188,35.5l-30.448-0.063l-24.132-33.775L64.497,146.766z M64.665,66.197l-0.059,28.731
	l9.367,0.019c11.556,0.026,17.344-4.828,17.363-14.561c0.021-9.421-5.645-14.144-16.99-14.168L64.665,66.197z"/>
<path fill="#FEFFFF" d="M194.613,137.924l-3.936-12.014l-28.723-0.06l-4.359,11.999l-22.654-0.047l33.229-82.503l16.712,0.034
	l32.633,82.643L194.613,137.924z M176.533,80.941l-8.724,28.208l17.208,0.035L176.533,80.941z"/>
<path d="M185.503,137.914l-3.936-12.018l-28.721-0.06l-4.358,12l-22.656-0.049l33.228-82.503l16.714,0.035l32.634,82.644
	L185.503,137.914z M167.425,80.928l-8.726,28.208l17.208,0.037L167.425,80.928z"/>
<path d="M244.509,133.646l-28.325-0.06l0.152-72.108l24.215,0.051c9.584,0.02,17.149,1.766,22.692,5.236
	c3.381,2.098,6.295,4.878,8.74,8.343c4.382,6.137,6.566,13.564,6.549,22.285c-0.023,10.956-3.143,19.741-9.354,26.358
	C262.965,130.371,254.743,133.667,244.509,133.646z M234.68,77.841l-0.084,39.46l7.892,0.016
	c11.748,0.024,17.638-6.449,17.663-19.424c0.013-6.379-1.489-11.312-4.509-14.794c-3.021-3.482-7.341-5.229-12.961-5.242
	L234.68,77.841z"/>
<path d="M309.72,140.599l-17.209-0.035l0.002-84.106l17.209,1.504L309.72,140.599z"/>
<path d="M353.789,133.373c-9.646-0.02-17.753-3.278-24.32-9.777c-6.571-6.499-9.843-14.503-9.824-24.018
	c0.021-9.645,3.313-17.72,9.877-24.224c6.562-6.502,14.7-9.745,24.41-9.723c9.71,0.019,17.896,3.312,24.566,9.875
	c6.664,6.563,9.986,14.603,9.965,24.117c-0.019,9.516-3.377,17.525-10.069,24.027C371.699,130.152,363.498,133.394,353.789,133.373z
	 M354.094,80.39c-5.083-0.01-9.323,1.799-12.718,5.42c-3.398,3.625-5.1,8.127-5.111,13.507c-0.013,5.513,1.688,10.104,5.101,13.774
	c3.415,3.671,7.694,5.509,12.842,5.521c4.954,0.009,9.131-1.811,12.527-5.468c3.394-3.657,5.101-8.142,5.111-13.458
	c0.011-5.449-1.69-10.021-5.104-13.725C363.328,82.257,359.113,80.401,354.094,80.39z"/>
<path d="M421.934,126.911c-7.765-0.016-14.291-2.639-19.579-7.871c-5.29-5.23-7.924-11.676-7.91-19.335
	c0.018-7.762,2.667-14.263,7.952-19.5c5.283-5.234,11.832-7.845,19.649-7.827c7.818,0.016,14.41,2.666,19.776,7.95
	c5.366,5.283,8.042,11.756,8.024,19.416c-0.016,7.66-2.716,14.107-8.105,19.343C436.353,124.321,429.749,126.928,421.934,126.911z
	 M422.181,84.26c-4.092-0.009-7.506,1.446-10.24,4.363c-2.736,2.919-4.106,6.543-4.115,10.874c-0.009,4.438,1.362,8.135,4.11,11.089
	c2.747,2.955,6.192,4.436,10.337,4.445c3.988,0.009,7.346-1.458,10.083-4.402c2.732-2.944,4.104-6.555,4.115-10.836
	c0.009-4.385-1.362-8.066-4.108-11.047C429.615,85.763,426.22,84.269,422.181,84.26z"/>
<path d="M477.951,121.221c-6.109-0.014-11.246-2.077-15.407-6.194c-4.161-4.117-6.236-9.189-6.222-15.217
	c0.01-6.11,2.1-11.226,6.253-15.345c4.161-4.12,9.314-6.174,15.465-6.162c6.152,0.014,11.34,2.099,15.564,6.258
	c4.221,4.157,6.328,9.25,6.313,15.278c-0.01,6.028-2.139,11.102-6.379,15.221C489.298,119.181,484.103,121.233,477.951,121.221z
	 M478.146,87.656c-3.222-0.007-5.907,1.137-8.058,3.433c-2.153,2.296-3.233,5.147-3.24,8.557c-0.007,3.493,1.071,6.401,3.232,8.727
	c2.162,2.324,4.875,3.49,8.137,3.497c3.137,0.007,5.782-1.148,7.935-3.463c2.153-2.314,3.231-5.158,3.24-8.526
	c0.007-3.451-1.071-6.348-3.234-8.696C483.997,88.837,481.325,87.663,478.146,87.656z"/>
<path d="M525.622,119.589c-5.201-0.009-9.57-1.765-13.111-5.269c-3.541-3.504-5.306-7.82-5.295-12.95
	c0.009-5.199,1.785-9.552,5.324-13.059c3.538-3.506,7.924-5.253,13.16-5.243c5.233,0.011,9.648,1.787,13.244,5.324
	c3.592,3.539,5.385,7.875,5.373,13.002c-0.011,5.13-1.818,9.45-5.428,12.955C535.275,117.856,530.857,119.602,525.622,119.589z
	 M525.787,91.028c-2.737-0.007-5.026,0.968-6.854,2.922c-1.834,1.954-2.75,4.38-2.757,7.282c-0.007,2.972,0.909,5.449,2.751,7.425
	c1.839,1.98,4.145,2.972,6.923,2.977c2.669,0.005,4.918-0.976,6.751-2.949c1.832-1.97,2.748-4.389,2.755-7.255
	c0.007-2.938-0.911-5.402-2.752-7.399C530.765,92.035,528.495,91.032,525.787,91.028z"/>
<path d="M562.743,113.716c-3.504-0.007-6.449-1.191-8.837-3.555c-2.385-2.361-3.574-5.268-3.565-8.724
	c0.007-3.504,1.201-6.438,3.585-8.8c2.386-2.363,5.342-3.541,8.87-3.534c3.526,0.008,6.5,1.204,8.924,3.59
	c2.421,2.383,3.63,5.304,3.622,8.76c-0.009,3.458-1.229,6.367-3.658,8.729C569.25,112.544,566.269,113.723,562.743,113.716z
	 M562.855,94.466c-1.848-0.003-3.39,0.653-4.622,1.97c-1.233,1.316-1.854,2.953-1.857,4.906c-0.007,2.003,0.613,3.671,1.855,5.007
	c1.238,1.332,2.796,2.001,4.666,2.004c1.797,0.003,3.316-0.659,4.549-1.987c1.233-1.329,1.852-2.958,1.857-4.891
	c0.003-1.979-0.613-3.64-1.854-4.985C566.209,95.146,564.676,94.47,562.855,94.466z"/>
<path fill="#FFFFFF" d="M595.738,111.704c-2.812-0.005-5.174-0.955-7.087-2.848c-1.915-1.894-2.868-4.227-2.862-6.999
	c0.005-2.812,0.965-5.166,2.878-7.059c1.913-1.896,4.281-2.841,7.112-2.834c2.831,0.005,5.216,0.965,7.159,2.878
	s2.912,4.256,2.904,7.029c-0.007,2.773-0.984,5.105-2.935,7.001C600.956,110.765,598.567,111.711,595.738,111.704z M595.826,96.266
	c-1.479-0.003-2.716,0.522-3.706,1.578c-0.99,1.057-1.485,2.371-1.49,3.937c-0.002,1.605,0.493,2.946,1.488,4.015
	c0.995,1.067,2.241,1.606,3.742,1.608c1.444,0.005,2.66-0.527,3.651-1.594c0.986-1.064,1.487-2.372,1.487-3.922
	c0.003-1.587-0.49-2.92-1.487-3.999C598.518,96.81,597.29,96.269,595.826,96.266z"/>
<path d="M591.594,111.863c-2.808-0.003-5.172-0.955-7.085-2.849c-1.913-1.894-2.87-4.226-2.862-6.999
	c0.007-2.812,0.965-5.165,2.876-7.059c1.913-1.896,4.285-2.841,7.114-2.834c2.829,0.004,5.214,0.965,7.159,2.878
	c1.941,1.913,2.91,4.254,2.906,7.027c-0.007,2.775-0.986,5.107-2.935,7.003C596.816,110.926,594.425,111.87,591.594,111.863z
	 M591.686,96.424c-1.483-0.003-2.72,0.525-3.706,1.58c-0.99,1.055-1.487,2.368-1.49,3.936c-0.004,1.605,0.493,2.944,1.488,4.015
	c0.995,1.068,2.241,1.605,3.743,1.608c1.441,0.003,2.66-0.527,3.646-1.594c0.99-1.064,1.487-2.371,1.49-3.921
	c0.004-1.587-0.491-2.921-1.486-3.999C594.376,96.968,593.149,96.427,591.686,96.424z"/>
<g>
	<path fill="#FFFFFF" d="M619.016,109.83c-2.249-0.004-4.14-0.765-5.669-2.28c-1.532-1.515-2.294-3.38-2.29-5.597
		c0.004-2.25,0.771-4.131,2.301-5.646c1.531-1.517,3.427-2.272,5.69-2.268s4.173,0.772,5.726,2.303
		c1.553,1.529,2.33,3.403,2.325,5.62c-0.007,2.22-0.788,4.087-2.349,5.602C623.19,109.078,621.278,109.837,619.016,109.83z
		 M619.086,97.481c-1.184-0.004-2.174,0.419-2.963,1.263c-0.793,0.844-1.19,1.894-1.194,3.148c-0.002,1.286,0.395,2.355,1.191,3.209
		c0.796,0.856,1.793,1.286,2.993,1.29c1.155,0.002,2.126-0.423,2.919-1.275c0.792-0.853,1.19-1.899,1.19-3.139
		c0.004-1.269-0.391-2.334-1.188-3.199C621.24,97.916,620.256,97.484,619.086,97.481z"/>
	<path d="M615.703,109.957c-2.248-0.003-4.138-0.765-5.669-2.279c-1.531-1.515-2.295-3.379-2.288-5.599
		c0.005-2.248,0.771-4.129,2.301-5.646c1.528-1.516,3.426-2.271,5.689-2.266c2.263,0.004,4.172,0.772,5.726,2.303
		c1.554,1.529,2.329,3.401,2.325,5.62c-0.007,2.22-0.789,4.085-2.347,5.602C619.876,109.206,617.966,109.962,615.703,109.957z
		 M615.775,97.607c-1.186-0.003-2.176,0.419-2.965,1.265c-0.791,0.842-1.189,1.892-1.192,3.146c-0.004,1.286,0.395,2.355,1.19,3.21
		c0.797,0.856,1.794,1.286,2.995,1.288c1.152,0.002,2.126-0.421,2.917-1.273s1.188-1.899,1.191-3.138
		c0.003-1.27-0.394-2.334-1.189-3.199C617.927,98.044,616.945,97.609,615.775,97.607z"/>
</g>
<circle fill="#D32027" cx="301.563" cy="34.448" r="13.482"/>
<g>
	<path d="M337.629,45.962c-1.783,0-3.348-0.329-4.694-0.988c-1.347-0.659-2.476-1.541-3.386-2.645
		c-0.911-1.104-1.599-2.384-2.063-3.837c-0.465-1.454-0.698-2.965-0.698-4.535c0-1.124,0.116-2.296,0.349-3.517
		s0.577-2.417,1.032-3.59c0.455-1.172,1.017-2.291,1.686-3.357c0.668-1.065,1.443-2.001,2.326-2.805
		c0.881-0.804,1.865-1.443,2.95-1.918c1.085-0.475,2.277-0.712,3.575-0.712c1.104,0,2.126,0.17,3.066,0.508
		c0.94,0.339,1.744,0.81,2.413,1.41s1.192,1.313,1.57,2.136c0.378,0.824,0.567,1.71,0.567,2.66c0,0.659-0.087,1.308-0.262,1.947
		c-0.174,0.64-0.432,1.216-0.771,1.729c-0.339,0.514-0.751,0.926-1.235,1.235c-0.484,0.311-1.027,0.465-1.627,0.465
		c-0.911,0-1.507-0.242-1.788-0.727c-0.281-0.484-0.421-1.153-0.421-2.006c0-0.349,0.014-0.717,0.043-1.104
		c0.029-0.387,0.043-0.736,0.043-1.046c0-0.465-0.048-0.853-0.146-1.163s-0.31-0.465-0.639-0.465c-0.795,0-1.473,0.189-2.035,0.567
		c-0.562,0.378-1.042,0.872-1.439,1.482c-0.397,0.61-0.712,1.298-0.945,2.064c-0.232,0.766-0.417,1.526-0.552,2.282
		c-0.136,0.756-0.223,1.478-0.262,2.166c-0.039,0.688-0.058,1.264-0.058,1.729c0,0.698,0.063,1.424,0.189,2.18
		c0.126,0.755,0.363,1.449,0.712,2.078c0.349,0.63,0.823,1.153,1.424,1.569c0.6,0.417,1.375,0.625,2.325,0.625
		c0.93,0,1.957-0.286,3.081-0.857c1.124-0.571,2.253-1.293,3.386-2.166c1.134-0.872,2.214-1.831,3.241-2.877
		c1.027-1.046,1.908-2.035,2.645-2.965l2.006,3.372c-1.454,2.074-3.023,3.924-4.709,5.552c-0.717,0.698-1.497,1.376-2.34,2.035
		c-0.843,0.659-1.725,1.246-2.645,1.759c-0.921,0.514-1.88,0.93-2.878,1.25S338.656,45.962,337.629,45.962z"/>
	<path d="M367.889,24.191c0.562,1.125,0.983,2.311,1.264,3.561s0.422,2.446,0.422,3.59s-0.126,2.296-0.378,3.459
		c-0.252,1.163-0.616,2.287-1.09,3.372c-0.475,1.085-1.056,2.103-1.744,3.052c-0.688,0.95-1.473,1.773-2.354,2.471
		c-0.882,0.697-1.846,1.25-2.892,1.657c-1.047,0.407-2.161,0.61-3.343,0.61c-1.706,0-3.164-0.373-4.375-1.119
		c-1.211-0.746-2.205-1.719-2.979-2.921c-0.775-1.201-1.342-2.558-1.701-4.069c-0.359-1.511-0.538-3.042-0.538-4.592
		c0-2.132,0.32-4.123,0.959-5.974c0.64-1.85,1.555-3.459,2.747-4.825c1.192-1.366,2.649-2.441,4.375-3.226
		c1.725-0.785,3.663-1.177,5.813-1.177c1.841,0,3.565,0.286,5.174,0.857c1.608,0.572,3.115,1.337,4.52,2.296
		c1.405,0.959,2.713,2.059,3.924,3.299c1.21,1.24,2.34,2.52,3.386,3.837l-0.552,4.099c-0.523-0.698-1.231-1.454-2.122-2.268
		c-0.892-0.813-1.836-1.608-2.834-2.383c-0.999-0.775-1.981-1.506-2.95-2.194c-0.969-0.688-1.802-1.265-2.5-1.729L367.889,24.191z
		 M358.907,40.381c0.659,0,1.298-0.334,1.918-1.002c0.62-0.669,1.163-1.512,1.628-2.529c0.465-1.018,0.838-2.141,1.119-3.372
		c0.281-1.23,0.421-2.408,0.421-3.532c0-0.891-0.068-1.719-0.204-2.485c-0.136-0.765-0.339-1.429-0.61-1.991
		c-0.271-0.562-0.62-1.007-1.046-1.337c-0.426-0.329-0.94-0.494-1.541-0.494c-0.795,0-1.551,0.339-2.267,1.018
		c-0.717,0.679-1.347,1.545-1.89,2.602s-0.969,2.224-1.279,3.502c-0.31,1.279-0.465,2.51-0.465,3.691
		c0,0.814,0.078,1.58,0.233,2.296c0.155,0.717,0.397,1.342,0.727,1.875c0.329,0.533,0.765,0.959,1.308,1.279
		C357.501,40.222,358.151,40.381,358.907,40.381z"/>
	<path d="M387.509,40.527c0-0.251,0.019-0.61,0.058-1.076c0.039-0.465,0.097-0.998,0.174-1.599c0.077-0.6,0.165-1.235,0.262-1.904
		c0.097-0.668,0.193-1.332,0.291-1.991c0.213-1.55,0.475-3.216,0.785-5h-0.436c-0.233,0.291-0.5,0.727-0.799,1.308
		c-0.301,0.582-0.722,1.434-1.265,2.558s-1.235,2.582-2.078,4.375c-0.843,1.792-1.933,4.036-3.27,6.729
		c-0.388,0.795-0.838,1.333-1.352,1.613c-0.514,0.281-1.081,0.421-1.701,0.421c-0.795,0-1.434-0.169-1.918-0.509
		c-0.484-0.339-0.857-0.794-1.119-1.366c-0.262-0.571-0.436-1.221-0.523-1.947c-0.087-0.727-0.131-1.478-0.131-2.253
		c0-0.794,0.048-1.734,0.145-2.819c0.097-1.085,0.223-2.228,0.378-3.43s0.334-2.427,0.538-3.677c0.203-1.25,0.417-2.446,0.639-3.59
		c0.223-1.143,0.451-2.189,0.683-3.139c0.232-0.949,0.446-1.725,0.64-2.325c0.193-0.62,0.378-1.114,0.552-1.482
		s0.373-0.654,0.596-0.858c0.223-0.203,0.489-0.338,0.799-0.407c0.31-0.068,0.708-0.102,1.192-0.102
		c0.736,0,1.312,0.024,1.729,0.073c0.417,0.048,0.727,0.165,0.93,0.349c0.204,0.185,0.324,0.451,0.363,0.799
		c0.039,0.349,0.058,0.824,0.058,1.424c0,0.33-0.015,0.708-0.043,1.134c-0.029,0.426-0.073,0.882-0.131,1.366
		c-0.058,0.485-0.121,0.984-0.189,1.497c-0.068,0.514-0.141,1.013-0.218,1.497c-0.175,1.144-0.359,2.325-0.552,3.546l0.319,0.349
		c0.039-0.058,0.247-0.426,0.625-1.104s0.843-1.492,1.396-2.442c0.552-0.949,1.148-1.942,1.788-2.979
		c0.639-1.037,1.25-1.952,1.831-2.747c0.562-0.794,1.158-1.453,1.788-1.977c0.629-0.523,1.381-0.785,2.253-0.785
		c0.814,0,1.511,0.237,2.093,0.712c0.581,0.475,0.872,1.148,0.872,2.02c0,0.756-0.049,1.473-0.146,2.151
		c-0.097,0.678-0.218,1.337-0.363,1.977c-0.146,0.639-0.296,1.264-0.451,1.875c-0.155,0.61-0.301,1.235-0.436,1.875
		c-0.097,0.446-0.155,0.727-0.174,0.843c-0.02,0.116-0.029,0.194-0.029,0.233l0.319,0.349c0.039-0.058,0.262-0.421,0.669-1.09
		c0.407-0.669,0.905-1.478,1.497-2.427c0.591-0.949,1.221-1.948,1.89-2.994s1.293-1.966,1.875-2.761
		c0.562-0.775,1.124-1.429,1.686-1.962c0.562-0.533,1.25-0.799,2.064-0.799c0.911,0,1.681,0.237,2.311,0.712
		c0.63,0.475,0.945,1.148,0.945,2.02c0,1.337-0.068,2.607-0.204,3.808c-0.136,1.202-0.291,2.383-0.465,3.546
		c-0.174,1.163-0.33,2.34-0.465,3.532c-0.136,1.192-0.203,2.457-0.203,3.793c0,1.046,0.135,1.899,0.407,2.558
		c0.271,0.659,0.601,0.988,0.988,0.988c0.407,0,0.833-0.087,1.279-0.261s0.901-0.397,1.366-0.668
		c0.465-0.271,0.92-0.586,1.366-0.945c0.446-0.358,0.872-0.731,1.279-1.119c0.949-0.891,1.89-1.899,2.82-3.023l0.494,6.86
		c-0.853,0.678-1.701,1.38-2.543,2.107c-0.843,0.727-1.734,1.386-2.674,1.977c-0.94,0.591-1.972,1.075-3.096,1.453
		s-2.393,0.567-3.808,0.567c-0.698,0-1.284-0.228-1.759-0.683c-0.475-0.455-0.857-1.09-1.148-1.904s-0.499-1.773-0.625-2.878
		c-0.126-1.104-0.189-2.306-0.189-3.604c0-1.221,0.044-2.514,0.131-3.88c0.087-1.366,0.208-2.747,0.363-4.142h-0.436l-5.9,15.027
		c-0.504,0.814-1.066,1.362-1.686,1.643c-0.62,0.281-1.337,0.421-2.151,0.421c-0.621,0-1.115-0.169-1.482-0.509
		c-0.368-0.339-0.654-0.775-0.857-1.308c-0.204-0.533-0.339-1.119-0.407-1.758S387.509,41.128,387.509,40.527z"/>
</g>
</svg>
